<svg class="marks" width="717.5" height="500" viewBox="0 0 717.5 500" version="1.1" xmlns="http://www.w3.org/2000/svg" xmlns:xlink="http://www.w3.org/1999/xlink"><defs><clipPath id="clip1"><rect x="0" y="0" width="675.5" height="396"></rect></clipPath><clipPath id="clip2"><rect x="0" y="0" width="675.5" height="396"></rect></clipPath><clipPath id="clip3"><rect x="0" y="0" width="675.5" height="396"></rect></clipPath><clipPath id="clip4"><rect x="0" y="0" width="675.5" height="396"></rect></clipPath></defs><g transform="translate(40,5)"><g class="mark-group role-frame root"><g transform="translate(0,0)"><path class="background" d="M0,0h675.5v396h-675.5Z" style="fill: none;"></path><g><g class="mark-group role-axis"><g transform="translate(0.5,0.5)"><path class="background" d="M0,0h0v0h0Z" style="pointer-events: none; fill: none;"></path><g><g class="mark-rule role-axis-grid" style="pointer-events: none;"><line transform="translate(0,396)" x2="675.5" y2="0" style="fill: none; stroke: #d8e1ed; stroke-width: 1; stroke-dasharray: 2,2; opacity: 1;"></line><line transform="translate(0,347)" x2="675.5" y2="0" style="fill: none; stroke: #d8e1ed; stroke-width: 1; stroke-dasharray: 2,2; opacity: 1;"></line><line transform="translate(0,297)" x2="675.5" y2="0" style="fill: none; stroke: #d8e1ed; stroke-width: 1; stroke-dasharray: 2,2; opacity: 1;"></line><line transform="translate(0,248)" x2="675.5" y2="0" style="fill: none; stroke: #d8e1ed; stroke-width: 1; stroke-dasharray: 2,2; opacity: 1;"></line><line transform="translate(0,198)" x2="675.5" y2="0" style="fill: none; stroke: #d8e1ed; stroke-width: 1; stroke-dasharray: 2,2; opacity: 1;"></line><line transform="translate(0,149)" x2="675.5" y2="0" style="fill: none; stroke: #d8e1ed; stroke-width: 1; stroke-dasharray: 2,2; opacity: 1;"></line><line transform="translate(0,99)" x2="675.5" y2="0" style="fill: none; stroke: #d8e1ed; stroke-width: 1; stroke-dasharray: 2,2; opacity: 1;"></line><line transform="translate(0,50)" x2="675.5" y2="0" style="fill: none; stroke: #d8e1ed; stroke-width: 1; stroke-dasharray: 2,2; opacity: 1;"></line><line transform="translate(0,0)" x2="675.5" y2="0" style="fill: none; stroke: #d8e1ed; stroke-width: 1; stroke-dasharray: 2,2; opacity: 1;"></line></g></g><path class="foreground" d="" style="pointer-events: none; display: none; fill: none;"></path></g></g><g class="mark-group role-axis"><g transform="translate(0.5,396.5)"><path class="background" d="M0,0h0v0h0Z" style="pointer-events: none; fill: none;"></path><g><g class="mark-rule role-axis-tick" style="pointer-events: none;"><line transform="translate(0,0)" x2="0" y2="5" style="fill: none; stroke: #888; stroke-width: 1; opacity: 1;"></line><line transform="translate(68,0)" x2="0" y2="5" style="fill: none; stroke: #888; stroke-width: 1; opacity: 1;"></line><line transform="translate(135,0)" x2="0" y2="5" style="fill: none; stroke: #888; stroke-width: 1; opacity: 1;"></line><line transform="translate(203,0)" x2="0" y2="5" style="fill: none; stroke: #888; stroke-width: 1; opacity: 1;"></line><line transform="translate(270,0)" x2="0" y2="5" style="fill: none; stroke: #888; stroke-width: 1; opacity: 1;"></line><line transform="translate(338,0)" x2="0" y2="5" style="fill: none; stroke: #888; stroke-width: 1; opacity: 1;"></line><line transform="translate(405,0)" x2="0" y2="5" style="fill: none; stroke: #888; stroke-width: 1; opacity: 1;"></line><line transform="translate(473,0)" x2="0" y2="5" style="fill: none; stroke: #888; stroke-width: 1; opacity: 1;"></line><line transform="translate(540,0)" x2="0" y2="5" style="fill: none; stroke: #888; stroke-width: 1; opacity: 1;"></line><line transform="translate(608,0)" x2="0" y2="5" style="fill: none; stroke: #888; stroke-width: 1; opacity: 1;"></line><line transform="translate(676,0)" x2="0" y2="5" style="fill: none; stroke: #888; stroke-width: 1; opacity: 1;"></line></g><g class="mark-text role-axis-label" style="pointer-events: none;"><text text-anchor="start" transform="translate(0,15)" style="font-family: source_sans_proregular; font-size: 10px; font-weight: normal; fill: #565f69; opacity: 1;">2012</text><text text-anchor="middle" transform="translate(67.6794415548864,15)" style="font-family: source_sans_proregular; font-size: 10px; font-weight: normal; fill: #565f69; opacity: 1;">2013</text><text text-anchor="middle" transform="translate(135.17396660279223,15)" style="font-family: source_sans_proregular; font-size: 10px; font-weight: normal; fill: #565f69; opacity: 1;">2014</text><text text-anchor="middle" transform="translate(202.66849165069806,15)" style="font-family: source_sans_proregular; font-size: 10px; font-weight: normal; fill: #565f69; opacity: 1;">2015</text><text text-anchor="middle" transform="translate(270.1630166986039,15)" style="font-family: source_sans_proregular; font-size: 10px; font-weight: normal; fill: #565f69; opacity: 1;">2016</text><text text-anchor="middle" transform="translate(337.8424582534903,15)" style="font-family: source_sans_proregular; font-size: 10px; font-weight: normal; fill: #565f69; opacity: 1;">2017</text><text text-anchor="middle" transform="translate(405.3369833013961,15)" style="font-family: source_sans_proregular; font-size: 10px; font-weight: normal; fill: #565f69; opacity: 1;">2018</text><text text-anchor="middle" transform="translate(472.83150834930194,15)" style="font-family: source_sans_proregular; font-size: 10px; font-weight: normal; fill: #565f69; opacity: 1;">2019</text><text text-anchor="middle" transform="translate(540.3260333972078,15)" style="font-family: source_sans_proregular; font-size: 10px; font-weight: normal; fill: #565f69; opacity: 1;">2020</text><text text-anchor="middle" transform="translate(608.0054749520941,15)" style="font-family: source_sans_proregular; font-size: 10px; font-weight: normal; fill: #565f69; opacity: 1;">2021</text><text text-anchor="end" transform="translate(675.5,15)" style="font-family: source_sans_proregular; font-size: 10px; font-weight: normal; fill: #565f69; opacity: 1;">2022</text></g><g class="mark-rule role-axis-domain" style="pointer-events: none;"><line transform="translate(0,0)" x2="675.5" y2="0" style="fill: none; stroke: #e4ebf3; stroke-width: 1; opacity: 1;"></line></g><g class="mark-text role-axis-title" style="pointer-events: none;"><text text-anchor="middle" transform="translate(337.75,37)" style="font-family: source_sans_prosemibold; font-size: 13px; font-weight: normal; fill: #14597a; opacity: 1;">Year</text></g></g><path class="foreground" d="" style="pointer-events: none; display: none; fill: none;"></path></g></g><g class="mark-group role-axis"><g transform="translate(0.5,0.5)"><path class="background" d="M0,0h0v0h0Z" style="pointer-events: none; fill: none;"></path><g><g class="mark-rule role-axis-tick" style="pointer-events: none;"><line transform="translate(0,396)" x2="-5" y2="0" style="fill: none; stroke: #888; stroke-width: 1; opacity: 1;"></line><line transform="translate(0,347)" x2="-5" y2="0" style="fill: none; stroke: #888; stroke-width: 1; opacity: 1;"></line><line transform="translate(0,297)" x2="-5" y2="0" style="fill: none; stroke: #888; stroke-width: 1; opacity: 1;"></line><line transform="translate(0,248)" x2="-5" y2="0" style="fill: none; stroke: #888; stroke-width: 1; opacity: 1;"></line><line transform="translate(0,198)" x2="-5" y2="0" style="fill: none; stroke: #888; stroke-width: 1; opacity: 1;"></line><line transform="translate(0,149)" x2="-5" y2="0" style="fill: none; stroke: #888; stroke-width: 1; opacity: 1;"></line><line transform="translate(0,99)" x2="-5" y2="0" style="fill: none; stroke: #888; stroke-width: 1; opacity: 1;"></line><line transform="translate(0,50)" x2="-5" y2="0" style="fill: none; stroke: #888; stroke-width: 1; opacity: 1;"></line><line transform="translate(0,0)" x2="-5" y2="0" style="fill: none; stroke: #888; stroke-width: 1; opacity: 1;"></line></g><g class="mark-text role-axis-label" style="pointer-events: none;"><text text-anchor="end" transform="translate(-7,399)" style="font-family: source_sans_proregular; font-size: 10px; font-weight: normal; fill: #565f69; opacity: 1;">0</text><text text-anchor="end" transform="translate(-7,349.5)" style="font-family: source_sans_proregular; font-size: 10px; font-weight: normal; fill: #565f69; opacity: 1;">2</text><text text-anchor="end" transform="translate(-7,300)" style="font-family: source_sans_proregular; font-size: 10px; font-weight: normal; fill: #565f69; opacity: 1;">4</text><text text-anchor="end" transform="translate(-7,250.5)" style="font-family: source_sans_proregular; font-size: 10px; font-weight: normal; fill: #565f69; opacity: 1;">6</text><text text-anchor="end" transform="translate(-7,201)" style="font-family: source_sans_proregular; font-size: 10px; font-weight: normal; fill: #565f69; opacity: 1;">8</text><text text-anchor="end" transform="translate(-7,151.5)" style="font-family: source_sans_proregular; font-size: 10px; font-weight: normal; fill: #565f69; opacity: 1;">10</text><text text-anchor="end" transform="translate(-7,102)" style="font-family: source_sans_proregular; font-size: 10px; font-weight: normal; fill: #565f69; opacity: 1;">12</text><text text-anchor="end" transform="translate(-7,52.5)" style="font-family: source_sans_proregular; font-size: 10px; font-weight: normal; fill: #565f69; opacity: 1;">14</text><text text-anchor="end" transform="translate(-7,3)" style="font-family: source_sans_proregular; font-size: 10px; font-weight: normal; fill: #565f69; opacity: 1;">16</text></g><g class="mark-rule role-axis-domain" style="pointer-events: none;"><line transform="translate(0,396)" x2="0" y2="-396" style="fill: none; stroke: #e4ebf3; stroke-width: 1; opacity: 1;"></line></g><g class="mark-text role-axis-title" style="pointer-events: none;"><text text-anchor="middle" transform="translate(-26.95555591583252,198) rotate(-90) translate(0,-3)" style="font-family: source_sans_prosemibold; font-size: 13px; font-weight: normal; fill: #14597a; opacity: 1;">Patents</text></g></g><path class="foreground" d="" style="pointer-events: none; display: none; fill: none;"></path></g></g><g class="mark-group role-scope layer_0_pathgroup"><g transform="translate(0,0)"><path class="background" d="M0,0h675.5v396h-675.5Z" style="fill: none;"></path><g><g class="mark-line role-mark layer_0_marks" clip-path="url(#clip1)"><path d="M0,148.5L67.6794415548864,123.75L135.17396660279223,198L202.66849165069806,297L270.1630166986039,247.5L337.8424582534903,321.75L405.3369833013961,346.5L472.83150834930194,24.75L540.3260333972078,148.5L608.0054749520941,24.75L675.5,148.5" style="fill: none; stroke: #e45756; stroke-width: 2;"></path></g></g><path class="foreground" d="" style="display: none; fill: none;"></path></g><g transform="translate(0,0)"><path class="background" d="M0,0h675.5v396h-675.5Z" style="fill: none;"></path><g><g class="mark-line role-mark layer_0_marks" clip-path="url(#clip2)"><path d="M0,198L67.6794415548864,272.25L135.17396660279223,321.75L202.66849165069806,297L270.1630166986039,371.25L337.8424582534903,148.5L405.3369833013961,74.25L472.83150834930194,222.75L540.3260333972078,74.25L608.0054749520941,222.75L675.5,371.25" style="fill: none; stroke: #4c78a8; stroke-width: 2;"></path></g></g><path class="foreground" d="" style="display: none; fill: none;"></path></g><g transform="translate(0,0)"><path class="background" d="M0,0h675.5v396h-675.5Z" style="fill: none;"></path><g><g class="mark-line role-mark layer_0_marks" clip-path="url(#clip3)"><path d="M0,148.5L67.6794415548864,198L135.17396660279223,247.5L202.66849165069806,297L270.1630166986039,297L337.8424582534903,346.5L405.3369833013961,321.75L472.83150834930194,321.75L540.3260333972078,222.75L608.0054749520941,198L675.5,148.5" style="fill: none; stroke: #f58518; stroke-width: 2;"></path></g></g><path class="foreground" d="" style="display: none; fill: none;"></path></g></g><g class="mark-symbol role-mark layer_1_marks" clip-path="url(#clip4)"><path transform="translate(0,148.5)" d="M4.47213595499958,0A4.47213595499958,4.47213595499958,0,1,1,-4.47213595499958,0A4.47213595499958,4.47213595499958,0,1,1,4.47213595499958,0" style="fill: #e45756; stroke-width: 2; opacity: 1;"></path><path transform="translate(0,198)" d="M4.47213595499958,0A4.47213595499958,4.47213595499958,0,1,1,-4.47213595499958,0A4.47213595499958,4.47213595499958,0,1,1,4.47213595499958,0" style="fill: #4c78a8; stroke-width: 2; opacity: 1;"></path><path transform="translate(0,148.5)" d="M4.47213595499958,0A4.47213595499958,4.47213595499958,0,1,1,-4.47213595499958,0A4.47213595499958,4.47213595499958,0,1,1,4.47213595499958,0" style="fill: #f58518; stroke-width: 2; opacity: 1;"></path><path transform="translate(67.6794415548864,123.75)" d="M4.47213595499958,0A4.47213595499958,4.47213595499958,0,1,1,-4.47213595499958,0A4.47213595499958,4.47213595499958,0,1,1,4.47213595499958,0" style="fill: #e45756; stroke-width: 2; opacity: 1;"></path><path transform="translate(67.6794415548864,272.25)" d="M4.47213595499958,0A4.47213595499958,4.47213595499958,0,1,1,-4.47213595499958,0A4.47213595499958,4.47213595499958,0,1,1,4.47213595499958,0" style="fill: #4c78a8; stroke-width: 2; opacity: 1;"></path><path transform="translate(67.6794415548864,198)" d="M4.47213595499958,0A4.47213595499958,4.47213595499958,0,1,1,-4.47213595499958,0A4.47213595499958,4.47213595499958,0,1,1,4.47213595499958,0" style="fill: #f58518; stroke-width: 2; opacity: 1;"></path><path transform="translate(135.17396660279223,198)" d="M4.47213595499958,0A4.47213595499958,4.47213595499958,0,1,1,-4.47213595499958,0A4.47213595499958,4.47213595499958,0,1,1,4.47213595499958,0" style="fill: #e45756; stroke-width: 2; opacity: 1;"></path><path transform="translate(135.17396660279223,321.75)" d="M4.47213595499958,0A4.47213595499958,4.47213595499958,0,1,1,-4.47213595499958,0A4.47213595499958,4.47213595499958,0,1,1,4.47213595499958,0" style="fill: #4c78a8; stroke-width: 2; opacity: 1;"></path><path transform="translate(135.17396660279223,247.5)" d="M4.47213595499958,0A4.47213595499958,4.47213595499958,0,1,1,-4.47213595499958,0A4.47213595499958,4.47213595499958,0,1,1,4.47213595499958,0" style="fill: #f58518; stroke-width: 2; opacity: 1;"></path><path transform="translate(202.66849165069806,297)" d="M4.47213595499958,0A4.47213595499958,4.47213595499958,0,1,1,-4.47213595499958,0A4.47213595499958,4.47213595499958,0,1,1,4.47213595499958,0" style="fill: #e45756; stroke-width: 2; opacity: 1;"></path><path transform="translate(202.66849165069806,297)" d="M4.47213595499958,0A4.47213595499958,4.47213595499958,0,1,1,-4.47213595499958,0A4.47213595499958,4.47213595499958,0,1,1,4.47213595499958,0" style="fill: #4c78a8; stroke-width: 2; opacity: 1;"></path><path transform="translate(202.66849165069806,297)" d="M4.47213595499958,0A4.47213595499958,4.47213595499958,0,1,1,-4.47213595499958,0A4.47213595499958,4.47213595499958,0,1,1,4.47213595499958,0" style="fill: #f58518; stroke-width: 2; opacity: 1;"></path><path transform="translate(270.1630166986039,247.5)" d="M4.47213595499958,0A4.47213595499958,4.47213595499958,0,1,1,-4.47213595499958,0A4.47213595499958,4.47213595499958,0,1,1,4.47213595499958,0" style="fill: #e45756; stroke-width: 2; opacity: 1;"></path><path transform="translate(270.1630166986039,371.25)" d="M4.47213595499958,0A4.47213595499958,4.47213595499958,0,1,1,-4.47213595499958,0A4.47213595499958,4.47213595499958,0,1,1,4.47213595499958,0" style="fill: #4c78a8; stroke-width: 2; opacity: 1;"></path><path transform="translate(270.1630166986039,297)" d="M4.47213595499958,0A4.47213595499958,4.47213595499958,0,1,1,-4.47213595499958,0A4.47213595499958,4.47213595499958,0,1,1,4.47213595499958,0" style="fill: #f58518; stroke-width: 2; opacity: 1;"></path><path transform="translate(337.8424582534903,321.75)" d="M4.47213595499958,0A4.47213595499958,4.47213595499958,0,1,1,-4.47213595499958,0A4.47213595499958,4.47213595499958,0,1,1,4.47213595499958,0" style="fill: #e45756; stroke-width: 2; opacity: 1;"></path><path transform="translate(337.8424582534903,148.5)" d="M4.47213595499958,0A4.47213595499958,4.47213595499958,0,1,1,-4.47213595499958,0A4.47213595499958,4.47213595499958,0,1,1,4.47213595499958,0" style="fill: #4c78a8; stroke-width: 2; opacity: 1;"></path><path transform="translate(337.8424582534903,346.5)" d="M4.47213595499958,0A4.47213595499958,4.47213595499958,0,1,1,-4.47213595499958,0A4.47213595499958,4.47213595499958,0,1,1,4.47213595499958,0" style="fill: #f58518; stroke-width: 2; opacity: 1;"></path><path transform="translate(405.3369833013961,346.5)" d="M4.47213595499958,0A4.47213595499958,4.47213595499958,0,1,1,-4.47213595499958,0A4.47213595499958,4.47213595499958,0,1,1,4.47213595499958,0" style="fill: #e45756; stroke-width: 2; opacity: 1;"></path><path transform="translate(405.3369833013961,74.25)" d="M4.47213595499958,0A4.47213595499958,4.47213595499958,0,1,1,-4.47213595499958,0A4.47213595499958,4.47213595499958,0,1,1,4.47213595499958,0" style="fill: #4c78a8; stroke-width: 2; opacity: 1;"></path><path transform="translate(405.3369833013961,321.75)" d="M4.47213595499958,0A4.47213595499958,4.47213595499958,0,1,1,-4.47213595499958,0A4.47213595499958,4.47213595499958,0,1,1,4.47213595499958,0" style="fill: #f58518; stroke-width: 2; opacity: 1;"></path><path transform="translate(472.83150834930194,24.75)" d="M4.47213595499958,0A4.47213595499958,4.47213595499958,0,1,1,-4.47213595499958,0A4.47213595499958,4.47213595499958,0,1,1,4.47213595499958,0" style="fill: #e45756; stroke-width: 2; opacity: 1;"></path><path transform="translate(472.83150834930194,222.75)" d="M4.47213595499958,0A4.47213595499958,4.47213595499958,0,1,1,-4.47213595499958,0A4.47213595499958,4.47213595499958,0,1,1,4.47213595499958,0" style="fill: #4c78a8; stroke-width: 2; opacity: 1;"></path><path transform="translate(472.83150834930194,321.75)" d="M4.47213595499958,0A4.47213595499958,4.47213595499958,0,1,1,-4.47213595499958,0A4.47213595499958,4.47213595499958,0,1,1,4.47213595499958,0" style="fill: #f58518; stroke-width: 2; opacity: 1;"></path><path transform="translate(540.3260333972078,148.5)" d="M4.47213595499958,0A4.47213595499958,4.47213595499958,0,1,1,-4.47213595499958,0A4.47213595499958,4.47213595499958,0,1,1,4.47213595499958,0" style="fill: #e45756; stroke-width: 2; opacity: 1;"></path><path transform="translate(540.3260333972078,74.25)" d="M4.47213595499958,0A4.47213595499958,4.47213595499958,0,1,1,-4.47213595499958,0A4.47213595499958,4.47213595499958,0,1,1,4.47213595499958,0" style="fill: #4c78a8; stroke-width: 2; opacity: 1;"></path><path transform="translate(540.3260333972078,222.75)" d="M4.47213595499958,0A4.47213595499958,4.47213595499958,0,1,1,-4.47213595499958,0A4.47213595499958,4.47213595499958,0,1,1,4.47213595499958,0" style="fill: #f58518; stroke-width: 2; opacity: 1;"></path><path transform="translate(608.0054749520941,24.75)" d="M4.47213595499958,0A4.47213595499958,4.47213595499958,0,1,1,-4.47213595499958,0A4.47213595499958,4.47213595499958,0,1,1,4.47213595499958,0" style="fill: #e45756; stroke-width: 2; opacity: 1;"></path><path transform="translate(608.0054749520941,222.75)" d="M4.47213595499958,0A4.47213595499958,4.47213595499958,0,1,1,-4.47213595499958,0A4.47213595499958,4.47213595499958,0,1,1,4.47213595499958,0" style="fill: #4c78a8; stroke-width: 2; opacity: 1;"></path><path transform="translate(608.0054749520941,198)" d="M4.47213595499958,0A4.47213595499958,4.47213595499958,0,1,1,-4.47213595499958,0A4.47213595499958,4.47213595499958,0,1,1,4.47213595499958,0" style="fill: #f58518; stroke-width: 2; opacity: 1;"></path><path transform="translate(675.5,148.5)" d="M4.47213595499958,0A4.47213595499958,4.47213595499958,0,1,1,-4.47213595499958,0A4.47213595499958,4.47213595499958,0,1,1,4.47213595499958,0" style="fill: #e45756; stroke-width: 2; opacity: 1;"></path><path transform="translate(675.5,371.25)" d="M4.47213595499958,0A4.47213595499958,4.47213595499958,0,1,1,-4.47213595499958,0A4.47213595499958,4.47213595499958,0,1,1,4.47213595499958,0" style="fill: #4c78a8; stroke-width: 2; opacity: 1;"></path><path transform="translate(675.5,148.5)" d="M4.47213595499958,0A4.47213595499958,4.47213595499958,0,1,1,-4.47213595499958,0A4.47213595499958,4.47213595499958,0,1,1,4.47213595499958,0" style="fill: #f58518; stroke-width: 2; opacity: 1;"></path></g><g class="mark-group role-legend"><g transform="translate(0,454)"><path class="background" d="M0,0h187v41h-187Z" style="pointer-events: none; fill: none;"></path><g><g class="mark-group role-legend-entry"><g transform="translate(0,28)"><path class="background" d="M0,0h0v0h0Z" style="pointer-events: none; fill: none;"></path><g><g class="mark-group role-scope"><g transform="translate(0,0.25)"><path class="background" d="M0,0h40.57777786254883v12.5h-40.57777786254883Z" style="pointer-events: none; fill: none; opacity: 1;"></path><g><g class="mark-symbol role-legend-symbol" style="pointer-events: none;"><path transform="translate(6,6)" d="M5,0A5,5,0,1,1,-5,0A5,5,0,1,1,5,0" style="fill: #4c78a8; stroke: #4c78a8; stroke-width: 1.5; opacity: 1;"></path></g><g class="mark-text role-legend-label" style="pointer-events: none;"><text text-anchor="start" transform="translate(16,10)" style="font-family: source_sans_proregular; font-size: 12px; font-weight: normal; fill: #565f69; opacity: 1;">Filed</text></g></g><path class="foreground" d="" style="pointer-events: none; display: none; fill: none;"></path></g><g transform="translate(52,0.25)"><path class="background" d="M0,0h56.377777099609375v12.5h-56.377777099609375Z" style="pointer-events: none; fill: none; opacity: 1;"></path><g><g class="mark-symbol role-legend-symbol" style="pointer-events: none;"><path transform="translate(6,6)" d="M5,0A5,5,0,1,1,-5,0A5,5,0,1,1,5,0" style="fill: #f58518; stroke: #f58518; stroke-width: 1.5; opacity: 1;"></path></g><g class="mark-text role-legend-label" style="pointer-events: none;"><text text-anchor="start" transform="translate(16,10)" style="font-family: source_sans_proregular; font-size: 12px; font-weight: normal; fill: #565f69; opacity: 1;">Granted</text></g></g><path class="foreground" d="" style="pointer-events: none; display: none; fill: none;"></path></g><g transform="translate(120,0.25)"><path class="background" d="M0,0h66.17777633666992v12.5h-66.17777633666992Z" style="pointer-events: none; fill: none; opacity: 1;"></path><g><g class="mark-symbol role-legend-symbol" style="pointer-events: none;"><path transform="translate(6,6)" d="M5,0A5,5,0,1,1,-5,0A5,5,0,1,1,5,0" style="fill: #e45756; stroke: #e45756; stroke-width: 1.5; opacity: 1;"></path></g><g class="mark-text role-legend-label" style="pointer-events: none;"><text text-anchor="start" transform="translate(16,10)" style="font-family: source_sans_proregular; font-size: 12px; font-weight: normal; fill: #565f69; opacity: 1;">Published</text></g></g><path class="foreground" d="" style="pointer-events: none; display: none; fill: none;"></path></g></g></g><path class="foreground" d="" style="pointer-events: none; display: none; fill: none;"></path></g></g><g class="mark-text role-legend-title" style="pointer-events: none;"><text text-anchor="start" transform="translate(0,10)" style="font-family: source_sans_prosemibold; font-size: 13px; font-weight: normal; fill: #14597a; opacity: 1;">Action</text></g></g><path class="foreground" d="" style="pointer-events: none; display: none; fill: none;"></path></g></g></g><path class="foreground" d="" style="display: none; fill: none;"></path></g></g></g></svg>